<?xml version="1.0" standalone="no"?>
<!DOCTYPE svg PUBLIC "-//W3C//DTD SVG 20010904//EN"
 "http://www.w3.org/TR/2001/REC-SVG-20010904/DTD/svg10.dtd">
<svg version="1.0" xmlns="http://www.w3.org/2000/svg"
 width="500.000000pt" height="500.000000pt" viewBox="0 0 500.000000 500.000000"
 preserveAspectRatio="xMidYMid meet">
<metadata>
Created by potrace 1.14, written by Peter Selinger 2001-2017
</metadata>
<g transform="translate(0.000000,500.000000) scale(0.100000,-0.100000)"
fill="#000000" stroke="none">
<path d="M2807 4823 c-1 0 -36 -4 -77 -7 -115 -10 -172 -17 -210 -26 -19 -5
-56 -11 -83 -15 -26 -3 -58 -10 -72 -15 -14 -5 -25 -8 -25 -5 0 2 -23 -3 -52
-11 -28 -9 -59 -17 -67 -19 -33 -7 -179 -59 -256 -91 -257 -106 -486 -252
-674 -430 -68 -64 -179 -186 -219 -239 -4 -5 -20 -26 -35 -46 l-28 -37 -50 13
c-62 17 -155 12 -214 -9 -148 -55 -247 -106 -204 -106 21 0 3 -11 -26 -16 -49
-9 -89 -36 -166 -113 -87 -87 -166 -200 -148 -212 7 -4 19 -4 28 1 18 9 73 33
81 35 3 1 23 7 45 13 22 6 51 13 65 16 14 2 25 5 25 6 0 6 143 22 304 35 30 2
58 2 63 -1 4 -3 0 -20 -9 -38 l-16 -34 -86 4 c-173 9 -326 4 -349 -10 -5 -3
-19 -7 -33 -9 -84 -16 -132 -64 -169 -172 -24 -67 -36 -170 -22 -179 5 -3 31
10 58 28 49 33 74 45 169 84 98 40 169 55 253 55 89 0 110 -10 91 -45 -7 -14
-16 -16 -42 -10 -17 4 -72 6 -122 6 -99 -1 -162 -18 -296 -81 l-76 -35 -21
-62 c-25 -70 -38 -166 -27 -193 4 -10 8 -75 9 -145 1 -107 4 -131 19 -148 24
-28 44 -21 132 45 76 57 128 80 152 66 23 -13 -26 -53 -124 -101 -93 -46 -116
-70 -103 -106 5 -13 8 -24 5 -24 -2 0 4 -24 15 -54 18 -53 56 -120 83 -147 18
-19 50 -79 41 -79 -10 0 17 -30 37 -40 12 -7 30 -2 64 16 41 21 46 22 40 7
-32 -79 -48 -282 -32 -400 13 -96 67 -172 193 -273 57 -46 214 -145 214 -135
0 13 103 -61 118 -84 93 -147 290 -363 438 -481 211 -168 484 -313 774 -410
14 -4 34 -11 45 -16 11 -4 25 -8 30 -9 6 -2 35 -10 65 -20 91 -28 124 -34 135
-25 5 4 45 2 89 -6 200 -35 631 -39 906 -9 72 8 136 16 165 20 17 3 43 7 59
10 16 2 52 9 80 14 28 6 62 12 76 15 14 2 32 7 40 10 8 3 26 7 40 10 154 26
520 154 705 246 l50 25 0 1150 0 1150 -485 2 c-267 1 -504 2 -526 3 -41 0 -42
1 -53 44 -37 147 -178 345 -311 436 -51 34 -137 71 -201 84 -25 6 -27 9 -29
68 -3 127 -7 253 -9 260 0 3 -13 21 -27 38 -28 33 -26 54 3 27 15 -13 21 -13
36 -2 20 14 79 12 202 -10 17 -3 44 -7 60 -10 59 -10 191 -56 275 -97 135 -65
247 -143 333 -233 l38 -39 42 44 c23 25 71 79 107 120 36 41 67 77 70 80 3 3
34 39 70 80 36 41 67 77 70 80 3 3 34 39 70 80 36 41 81 92 100 114 109 121
130 146 130 154 0 7 -49 51 -142 127 -81 66 -334 202 -488 263 -86 34 -236 83
-265 87 -11 2 -44 10 -74 19 -57 17 -199 43 -326 60 -93 13 -190 18 -358 20
-98 0 -179 0 -180 -1z m-168 -1085 c85 -87 139 -172 145 -228 2 -25 5 -49 6
-55 4 -18 0 -35 -9 -35 -5 0 -11 22 -13 49 -9 90 -125 255 -212 302 -50 26
-56 35 -28 42 26 6 43 -6 111 -75z m-1712 39 c12 -7 6 -23 -24 -66 -1 -2 -21
4 -45 14 -70 28 -131 41 -186 40 -50 -1 -59 8 -17 17 34 8 259 3 272 -5z
m1385 -431 c11 -22 29 -67 40 -99 17 -53 18 -62 5 -75 -8 -8 -20 -11 -26 -7
-18 10 -58 100 -70 153 -8 40 -9 57 -2 91 2 11 35 -28 53 -63z m-1737 -320
c23 -6 35 -25 18 -27 -9 -1 -20 -3 -88 -19 -81 -19 -138 -25 -184 -21 -15 1
17 28 59 49 49 24 137 32 195 18z m2490 -86 c15 -6 6 -9 -32 -9 -29 -1 -53 4
-53 9 0 12 57 12 85 0z m-1259 -322 l-4 -223 -24 0 c-44 0 -48 10 -48 137 0
115 1 123 35 201 19 44 35 86 35 94 0 7 2 13 5 13 3 0 4 -100 1 -222z m795
185 c8 -92 -20 -186 -70 -242 -11 -13 -21 -27 -21 -31 0 -3 -26 -34 -58 -68
-45 -49 -66 -64 -95 -69 -28 -4 -37 -2 -38 8 0 8 -2 21 -4 30 -1 9 9 45 24 80
68 160 180 309 234 309 19 0 27 -6 28 -17z m-635 -150 c10 -50 32 -49 88 4 28
26 54 53 58 58 5 7 8 7 8 0 0 -5 4 -4 9 4 6 9 9 -16 9 -70 0 -46 3 -97 6 -114
10 -44 29 -98 39 -112 17 -23 -5 -14 -60 24 -55 38 -114 50 -160 32 -18 -7
-54 -56 -53 -74 1 -20 -1 -25 -10 -25 -8 0 -9 60 -6 188 2 103 5 189 5 191 3
14 62 -80 67 -106z m917 -265 c-1 -78 -6 -124 -17 -150 -18 -42 -54 -80 -69
-71 -8 5 -3 158 7 208 3 11 5 25 5 31 2 18 61 105 69 100 4 -2 6 -55 5 -118z
m-456 -228 c18 -14 108 -56 258 -120 18 -8 76 -22 145 -34 14 -3 48 -11 75
-18 30 -8 68 -11 95 -7 128 18 271 -42 337 -142 14 -22 32 -39 40 -37 8 2 13
7 13 12 -1 5 3 12 8 15 5 3 18 22 28 42 40 77 120 199 134 203 23 8 139 10
147 3 12 -13 9 -778 -3 -788 -38 -31 -267 -90 -414 -105 -145 -16 -393 -10
-527 12 -50 8 -164 36 -160 40 1 2 19 4 38 5 59 2 182 31 237 55 29 13 53 22
55 21 8 -5 131 90 164 128 39 45 72 123 59 143 -3 5 -23 12 -44 15 -46 6 -152
74 -232 148 -74 70 -133 106 -209 129 -96 30 -176 39 -248 27 -21 -3 -33 -1
-34 6 -1 7 -2 35 -3 62 -4 69 -26 184 -42 217 -25 49 -23 48 83 -32z m-1705
-369 l16 -50 -44 -40 c-54 -51 -85 -64 -110 -47 -29 22 -2 85 59 141 27 25 53
45 56 45 4 0 14 -22 23 -49z m1203 -12 c11 -17 -1 -21 -15 -4 -8 9 -8 15 -2
15 6 0 14 -5 17 -11z m122 -134 l-2 -55 -23 24 c-15 14 -24 37 -26 62 -4 51 0
57 29 38 20 -13 23 -23 22 -69z m193 -225 c0 -5 -7 -7 -15 -4 -8 4 -15 8 -15
10 0 2 7 4 15 4 8 0 15 -4 15 -10z m67 -52 c-3 -8 -6 -5 -6 6 -1 11 2 17 5 13
3 -3 4 -12 1 -19z"/>
</g>
</svg>
